<svg width="926" height="551" viewBox="0 0 926 551" fill="none" xmlns="http://www.w3.org/2000/svg">
<path d="M57.3872 400.965C107.601 412.506 163.663 475.863 218.936 551H1236.98C1249.53 548.904 1236.7 522.203 1140.25 456.556C1043.8 390.909 832.133 231.957 813.185 213.967C794.237 195.977 716.023 158.149 681.474 158.149C646.952 158.149 618.207 149.898 588.29 141.31L588.22 141.29C558.277 132.695 408.884 89.3546 408.884 89.3546C386.2 84.7701 353.8 9.22366 351.497 2.78332C349.194 -3.65703 315.366 1.44363 308.457 14.3243C301.547 27.205 251.069 89.3546 251.069 89.3546C251.069 89.3546 169.859 130.556 172.162 141.29C161.413 175.638 171.635 180.482 157.815 210.537C143.995 240.592 0 233.607 0 256.701C0 279.796 7.17334 389.424 57.3872 400.965Z" fill="#38BDF8" fill-opacity="0.1"/>
</svg>
