<svg width="24" height="24" viewBox="0 0 24 24" fill="none" xmlns="http://www.w3.org/2000/svg">
<circle cx="12" cy="12" r="11.65" stroke="#E5E7EB" stroke-width="0.7"/>
<path fill-rule="evenodd" clip-rule="evenodd" d="M10.6944 8.3622C9.60029 7.2432 7.79984 7.2432 6.70571 8.3622C5.64581 9.44619 5.64581 11.1783 6.70571 12.2623L12.0001 17.677L17.2944 12.2623C18.3543 11.1783 18.3543 9.44619 17.2944 8.3622C16.2003 7.2432 14.3998 7.2432 13.3057 8.3622L12.5363 9.14907C12.3952 9.29338 12.2019 9.37473 12.0001 9.37473C11.7982 9.37473 11.6049 9.29338 11.4638 9.14907L10.6944 8.3622ZM5.6332 7.31352C7.31572 5.59276 10.0844 5.59276 11.7669 7.31352L12.0001 7.55195L12.2332 7.31352C13.9157 5.59276 16.6844 5.59276 18.3669 7.31352C19.9968 8.98045 19.9968 11.644 18.3669 13.3109L13.0426 18.7563C12.4706 19.3413 11.5295 19.3413 10.9576 18.7563L5.6332 13.3109C4.00331 11.644 4.00331 8.98045 5.6332 7.31352Z" fill="#9CA3AF"/>
</svg>
