<svg width="100%" height="100%" viewBox="0 0 40 40" fill="none" xmlns="http://www.w3.org/2000/svg">
<path fill-rule="evenodd" clip-rule="evenodd" d="M5.74999 20C5.74999 12.1299 12.1299 5.75 20 5.75C27.8701 5.75 34.25 12.1299 34.25 20C34.25 27.8701 27.8701 34.25 20 34.25C12.1299 34.25 5.74999 27.8701 5.74999 20ZM20 4.25C11.3015 4.25 4.24999 11.3015 4.24999 20C4.24999 28.6985 11.3015 35.75 20 35.75C28.6985 35.75 35.75 28.6985 35.75 20C35.75 11.3015 28.6985 4.25 20 4.25ZM26.5299 14.4452C26.6413 14.1666 26.576 13.8485 26.3638 13.6363C26.1517 13.4242 25.8335 13.3589 25.555 13.4703L17.2216 16.8036C17.031 16.8799 16.88 17.0309 16.8038 17.2215L13.4705 25.5548C13.359 25.8334 13.4244 26.1515 13.6365 26.3637C13.8486 26.5758 14.1668 26.6411 14.4454 26.5297L22.7787 23.1964C22.9693 23.1201 23.1203 22.9691 23.1965 22.7785L26.5299 14.4452ZM15.5131 24.487L18.0771 18.077L24.4872 15.513L21.9232 21.923L15.5131 24.487Z" fill="#7B818C"/>
</svg>
