<svg width="100%" height="100%" viewBox="0 0 7 7" fill="none" xmlns="http://www.w3.org/2000/svg">
<path d="M2.97653 1.2291C3.1413 0.722006 3.8587 0.722006 4.02347 1.2291C4.23103 1.8679 4.82632 2.30041 5.49799 2.30041C6.03118 2.30041 6.25287 2.9827 5.82151 3.2961C5.27811 3.6909 5.05074 4.39071 5.25829 5.02951C5.42306 5.5366 4.84267 5.95828 4.41131 5.64488C3.86791 5.25008 3.13209 5.25008 2.58869 5.64488C2.15733 5.95828 1.57694 5.5366 1.74171 5.02951C1.94927 4.39071 1.72189 3.6909 1.17849 3.2961C0.747125 2.9827 0.968816 2.30041 1.50201 2.30041C2.17368 2.30041 2.76897 1.8679 2.97653 1.2291Z" stroke="#F1AE00"/>
</svg>
